<svg width="241" height="25" viewBox="0 0 241 25" fill="none" xmlns="http://www.w3.org/2000/svg">
<path d="M12.7276 0.646484L15.4218 8.93828H24.1403L17.0869 14.0629L19.781 22.3547L12.7276 17.2301L5.67418 22.3547L8.36834 14.0629L1.31492 8.93828H10.0334L12.7276 0.646484Z" fill="#DA9B1D"/>
<path d="M36.7276 0.646484L39.4218 8.93828H48.1403L41.0869 14.0629L43.781 22.3547L36.7276 17.2301L29.6742 22.3547L32.3683 14.0629L25.3149 8.93828H34.0334L36.7276 0.646484Z" fill="#DA9B1D"/>
<path d="M60.7276 0.646484L63.4218 8.93828H72.1403L65.0869 14.0629L67.781 22.3547L60.7276 17.2301L53.6742 22.3547L56.3683 14.0629L49.3149 8.93828H58.0334L60.7276 0.646484Z" fill="#DA9B1D"/>
<path d="M84.7276 0.646484L87.4218 8.93828H96.1403L89.0869 14.0629L91.781 22.3547L84.7276 17.2301L77.6742 22.3547L80.3683 14.0629L73.3149 8.93828H82.0334L84.7276 0.646484Z" fill="#DA9B1D"/>
<path d="M108.728 0.646484L111.422 8.93828H120.14L113.087 14.0629L115.781 22.3547L108.728 17.2301L101.674 22.3547L104.368 14.0629L97.3149 8.93828H106.033L108.728 0.646484Z" fill="#DA9B1D"/>
<path d="M132.728 0.646484L135.422 8.93828H144.14L137.087 14.0629L139.781 22.3547L132.728 17.2301L125.674 22.3547L128.368 14.0629L121.315 8.93828H130.033L132.728 0.646484Z" fill="#DA9B1D"/>
<path d="M156.728 0.646484L159.422 8.93828H168.14L161.087 14.0629L163.781 22.3547L156.728 17.2301L149.674 22.3547L152.368 14.0629L145.315 8.93828H154.033L156.728 0.646484Z" fill="#DA9B1D"/>
<path d="M180.728 0.646484L183.422 8.93828H192.14L185.087 14.0629L187.781 22.3547L180.728 17.2301L173.674 22.3547L176.368 14.0629L169.315 8.93828H178.033L180.728 0.646484Z" fill="#D9D9D9"/>
<path d="M204.728 0.646484L207.422 8.93828H216.14L209.087 14.0629L211.781 22.3547L204.728 17.2301L197.674 22.3547L200.368 14.0629L193.315 8.93828H202.033L204.728 0.646484Z" fill="#D9D9D9"/>
<path d="M228.728 0.646484L231.422 8.93828H240.14L233.087 14.0629L235.781 22.3547L228.728 17.2301L221.674 22.3547L224.368 14.0629L217.315 8.93828H226.033L228.728 0.646484Z" fill="#D9D9D9"/>
</svg>
