<svg width="107" height="131" viewBox="0 0 107 131" fill="none" xmlns="http://www.w3.org/2000/svg">
<path d="M9.6875 34H1.08594C0.960938 34 0.898438 33.9219 0.898438 33.7656L0.992188 0.789062C0.992188 0.664063 1.05469 0.601562 1.17969 0.601562H10.4141C12.2109 0.601562 13.8438 1.03906 15.3125 1.91406C16.75 2.78906 17.8828 3.95312 18.7109 5.40625C19.5391 6.84375 19.9531 8.40625 19.9531 10.0938C19.9531 11.4688 19.6406 12.75 19.0156 13.9375C18.3906 15.125 17.6484 16.0859 16.7891 16.8203C17.7109 17.7422 18.4297 18.8125 18.9453 20.0312C19.4609 21.25 19.7188 22.5312 19.7188 23.875C19.7188 25.7344 19.2734 27.4297 18.3828 28.9609C17.4766 30.4922 16.2656 31.7188 14.75 32.6406C13.2344 33.5469 11.5469 34 9.6875 34ZM10.4141 6.29688H6.75781V13.8438H10.4141C11.5234 13.8438 12.4219 13.4531 13.1094 12.6719C13.7969 11.875 14.1406 11.0156 14.1406 10.0938C14.1406 9.07813 13.7734 8.19531 13.0391 7.44531C12.3047 6.67969 11.4297 6.29688 10.4141 6.29688ZM9.6875 19.6562H6.75781L6.71094 28.1406H9.6875C10.8438 28.1406 11.8359 27.7188 12.6641 26.875C13.4922 26.0312 13.9062 25.0312 13.9062 23.875C13.9062 22.7188 13.4922 21.7266 12.6641 20.8984C11.8359 20.0703 10.8438 19.6562 9.6875 19.6562ZM32.0469 34.4688C30.3438 34.4688 28.7734 34.0312 27.3359 33.1562C25.9141 32.2812 24.7656 31.1172 23.8906 29.6641C23.0312 28.1953 22.6016 26.5859 22.6016 24.8359L22.6484 9.625C22.6484 7.84375 23.0781 6.24219 23.9375 4.82031C24.7812 3.38281 25.9219 2.23438 27.3594 1.375C28.7969 0.5 30.3594 0.0625 32.0469 0.0625C33.7969 0.0625 35.3672 0.492187 36.7578 1.35156C38.1641 2.21094 39.2891 3.36719 40.1328 4.82031C40.9922 6.25781 41.4219 7.85938 41.4219 9.625L41.4688 24.8359C41.4688 26.5859 41.0469 28.1875 40.2031 29.6406C39.3438 31.1094 38.2031 32.2812 36.7812 33.1562C35.3594 34.0312 33.7812 34.4688 32.0469 34.4688ZM32.0469 28.6797C33.0156 28.6797 33.8594 28.2891 34.5781 27.5078C35.2969 26.7109 35.6562 25.8203 35.6562 24.8359L35.6094 9.625C35.6094 8.5625 35.2734 7.66406 34.6016 6.92969C33.9297 6.19531 33.0781 5.82812 32.0469 5.82812C31.0625 5.82812 30.2188 6.1875 29.5156 6.90625C28.8125 7.625 28.4609 8.53125 28.4609 9.625V24.8359C28.4609 25.8828 28.8125 26.7891 29.5156 27.5547C30.2188 28.3047 31.0625 28.6797 32.0469 28.6797ZM42.5 33.7656L48.4531 0.789062C48.4844 0.664063 48.5625 0.601562 48.6875 0.601562H55.6484C55.7734 0.601562 55.8516 0.664063 55.8828 0.789062L61.6016 33.7656C61.6172 33.9219 61.5547 34 61.4141 34H56.0938C55.9375 34 55.8516 33.9219 55.8359 33.7656L55.3203 30.25H48.7812L48.2656 33.7656C48.25 33.9219 48.1719 34 48.0312 34H42.6875C42.5625 34 42.5 33.9219 42.5 33.7656ZM51.8984 11.6406L49.7422 25.1172H54.3594L52.3906 11.6406L52.1094 9.85938L51.8984 11.6406ZM70.2266 34H64.7891C64.6641 34 64.6016 33.9219 64.6016 33.7656L64.6953 0.789062C64.6953 0.664063 64.7578 0.601562 64.8828 0.601562H74.5859C76.3203 0.601562 77.9141 1.02344 79.3672 1.86719C80.8203 2.71094 81.9766 3.84375 82.8359 5.26562C83.7109 6.6875 84.1484 8.29687 84.1484 10.0938C84.1484 11.2656 83.9688 12.3281 83.6094 13.2812C83.25 14.2344 82.8281 15.0391 82.3438 15.6953C81.875 16.3516 81.4453 16.8359 81.0547 17.1484C82.7891 19.0703 83.6562 21.3281 83.6562 23.9219L83.7031 33.7656C83.7031 33.9219 83.625 34 83.4688 34H78.0312C77.9062 34 77.8438 33.9531 77.8438 33.8594V23.9219C77.8438 22.7656 77.4375 21.7656 76.625 20.9219C75.8125 20.0781 74.8125 19.6562 73.625 19.6562H70.4609L70.4141 33.7656C70.4141 33.9219 70.3516 34 70.2266 34ZM74.5859 6.34375H70.4609V13.8906H74.5859C75.5703 13.8906 76.4453 13.5234 77.2109 12.7891C77.9922 12.0547 78.3828 11.1562 78.3828 10.0938C78.3828 9.07813 78.0078 8.20312 77.2578 7.46875C76.5078 6.71875 75.6172 6.34375 74.5859 6.34375ZM96.5938 33.9531L87.9922 34C87.8359 34 87.7578 33.9219 87.7578 33.7656L87.8516 0.789062C87.8516 0.664063 87.9141 0.601562 88.0391 0.601562L97.0156 0.554688C98.7969 0.507812 100.406 0.914062 101.844 1.77344C103.297 2.63281 104.453 3.79687 105.312 5.26562C106.188 6.71875 106.625 8.32813 106.625 10.0938V23.875C106.625 25.7188 106.18 27.4062 105.289 28.9375C104.383 30.4531 103.18 31.6641 101.68 32.5703C100.18 33.4609 98.4844 33.9219 96.5938 33.9531ZM97.0156 6.29688L93.6641 6.34375L93.6172 28.0938H96.5938C97.7812 28.0938 98.7812 27.6797 99.5938 26.8516C100.406 26.0234 100.812 25.0312 100.812 23.875V10.0469C100.812 9.03125 100.438 8.14844 99.6875 7.39844C98.9375 6.63281 98.0469 6.26563 97.0156 6.29688ZM9.6875 82.4688C7.95312 82.4688 6.39062 82.0391 5 81.1797C3.59375 80.3203 2.46094 79.1641 1.60156 77.7109C0.757812 76.2578 0.335938 74.6328 0.335938 72.8359V57.625C0.335938 55.875 0.765625 54.2812 1.625 52.8438C2.46875 51.3906 3.60156 50.2344 5.02344 49.375C6.44531 48.5 8 48.0625 9.6875 48.0625C11.4531 48.0625 13.0469 48.4844 14.4688 49.3281C15.8906 50.1875 17.0156 51.3359 17.8438 52.7734C18.6875 54.2109 19.1094 55.8281 19.1094 57.625V59.8281C19.1094 59.9531 19.0312 60.0156 18.875 60.0156H13.4844C13.3594 60.0156 13.2969 59.9531 13.2969 59.8281V58C13.2969 56.7812 12.9531 55.7734 12.2656 54.9766C11.5781 54.1797 10.7188 53.7812 9.6875 53.7812C8.76562 53.7812 7.94531 54.1641 7.22656 54.9297C6.50781 55.6953 6.14844 56.5938 6.14844 57.625V72.8359C6.14844 73.8828 6.5 74.7891 7.20312 75.5547C7.90625 76.3047 8.73438 76.6797 9.6875 76.6797C10.7188 76.6797 11.5781 76.3125 12.2656 75.5781C12.9531 74.8281 13.2969 73.9141 13.2969 72.8359V70.4688H9.94531C9.77344 70.4688 9.6875 70.3906 9.6875 70.2344V64.8672C9.6875 64.7109 9.77344 64.6328 9.94531 64.6328H18.9219C19.0469 64.6328 19.1094 64.7109 19.1094 64.8672V72.8359C19.1094 74.6328 18.6875 76.2578 17.8438 77.7109C16.9844 79.1641 15.8516 80.3203 14.4453 81.1797C13.0391 82.0391 11.4531 82.4688 9.6875 82.4688ZM20.8906 81.7656L26.8438 48.7891C26.875 48.6641 26.9531 48.6016 27.0781 48.6016H34.0391C34.1641 48.6016 34.2422 48.6641 34.2734 48.7891L39.9922 81.7656C40.0078 81.9219 39.9453 82 39.8047 82H34.4844C34.3281 82 34.2422 81.9219 34.2266 81.7656L33.7109 78.25H27.1719L26.6562 81.7656C26.6406 81.9219 26.5625 82 26.4219 82H21.0781C20.9531 82 20.8906 81.9219 20.8906 81.7656ZM30.2891 59.6406L28.1328 73.1172H32.75L30.7812 59.6406L30.5 57.8594L30.2891 59.6406ZM48.6172 82H43.1797C43.0547 82 42.9922 81.9219 42.9922 81.7656L43.0859 48.7891C43.0859 48.6641 43.1484 48.6016 43.2734 48.6016H49.1328C49.2578 48.6016 49.3672 48.6641 49.4609 48.7891L53.8438 55.1172L58.2031 48.7891C58.2969 48.6641 58.4141 48.6016 58.5547 48.6016H64.4375C64.5781 48.6016 64.6484 48.6641 64.6484 48.7891L64.7422 81.7656C64.7422 81.9219 64.6797 82 64.5547 82H59.1172C58.9922 82 58.9297 81.9219 58.9297 81.7656L58.8828 57.2734L53.8438 64.5859L48.8516 57.2734L48.8047 81.7656C48.8047 81.9219 48.7422 82 48.6172 82ZM84.4766 82H68.9609C68.8359 82 68.7734 81.9219 68.7734 81.7656L68.8203 48.7891C68.8203 48.6641 68.8828 48.6016 69.0078 48.6016H84.4297C84.5547 48.6016 84.6172 48.6797 84.6172 48.8359V54.2031C84.6172 54.3281 84.5547 54.3906 84.4297 54.3906H74.5859V61.8906H84.4297C84.5547 61.8906 84.6172 61.9531 84.6172 62.0781L84.6641 67.5156C84.6641 67.6406 84.6016 67.7031 84.4766 67.7031H74.5859V76.0938H84.4766C84.6016 76.0938 84.6641 76.1719 84.6641 76.3281V81.8125C84.6641 81.9375 84.6016 82 84.4766 82ZM9.6875 130.469C7.95312 130.469 6.39062 130.039 5 129.18C3.59375 128.32 2.46094 127.164 1.60156 125.711C0.757812 124.258 0.335938 122.633 0.335938 120.836V105.625C0.335938 103.875 0.765625 102.281 1.625 100.844C2.46875 99.3906 3.60156 98.2344 5.02344 97.375C6.44531 96.5 8 96.0625 9.6875 96.0625C11.4531 96.0625 13.0469 96.4844 14.4688 97.3281C15.8906 98.1875 17.0156 99.3359 17.8438 100.773C18.6875 102.211 19.1094 103.828 19.1094 105.625V107.828C19.1094 107.953 19.0312 108.016 18.875 108.016H13.4844C13.3594 108.016 13.2969 107.953 13.2969 107.828V106C13.2969 104.781 12.9531 103.773 12.2656 102.977C11.5781 102.18 10.7188 101.781 9.6875 101.781C8.76562 101.781 7.94531 102.164 7.22656 102.93C6.50781 103.695 6.14844 104.594 6.14844 105.625V120.836C6.14844 121.883 6.5 122.789 7.20312 123.555C7.90625 124.305 8.73438 124.68 9.6875 124.68C10.7188 124.68 11.5781 124.312 12.2656 123.578C12.9531 122.828 13.2969 121.914 13.2969 120.836V118.469H9.94531C9.77344 118.469 9.6875 118.391 9.6875 118.234V112.867C9.6875 112.711 9.77344 112.633 9.94531 112.633H18.9219C19.0469 112.633 19.1094 112.711 19.1094 112.867V120.836C19.1094 122.633 18.6875 124.258 17.8438 125.711C16.9844 127.164 15.8516 128.32 14.4453 129.18C13.0391 130.039 11.4531 130.469 9.6875 130.469ZM38.2109 130H22.6953C22.5703 130 22.5078 129.922 22.5078 129.766L22.5547 96.7891C22.5547 96.6641 22.6172 96.6016 22.7422 96.6016H38.1641C38.2891 96.6016 38.3516 96.6797 38.3516 96.8359V102.203C38.3516 102.328 38.2891 102.391 38.1641 102.391H28.3203V109.891H38.1641C38.2891 109.891 38.3516 109.953 38.3516 110.078L38.3984 115.516C38.3984 115.641 38.3359 115.703 38.2109 115.703H28.3203V124.094H38.2109C38.3359 124.094 38.3984 124.172 38.3984 124.328V129.812C38.3984 129.938 38.3359 130 38.2109 130ZM58.3672 130H42.8516C42.7266 130 42.6641 129.922 42.6641 129.766L42.7109 96.7891C42.7109 96.6641 42.7734 96.6016 42.8984 96.6016H58.3203C58.4453 96.6016 58.5078 96.6797 58.5078 96.8359V102.203C58.5078 102.328 58.4453 102.391 58.3203 102.391H48.4766V109.891H58.3203C58.4453 109.891 58.5078 109.953 58.5078 110.078L58.5547 115.516C58.5547 115.641 58.4922 115.703 58.3672 115.703H48.4766V124.094H58.3672C58.4922 124.094 58.5547 124.172 58.5547 124.328V129.812C58.5547 129.938 58.4922 130 58.3672 130ZM68.4453 130H63.0078C62.8828 130 62.8203 129.922 62.8203 129.766L62.9141 96.8359C62.9141 96.6797 62.9766 96.6016 63.1016 96.6016H68.4922C68.6172 96.6016 68.6797 96.6797 68.6797 96.8359V108.203L76.2031 96.7891C76.3281 96.6641 76.4453 96.6016 76.5547 96.6016H82.0625C82.2031 96.6016 82.2344 96.6641 82.1562 96.7891L73.8594 110.031L83.1641 129.812C83.2422 129.938 83.1641 130 82.9297 130H77.0703C76.9141 130 76.8203 129.938 76.7891 129.812L70.2969 115.703L68.6328 118.328V129.766C68.6328 129.922 68.5703 130 68.4453 130Z" fill="#DA9B1D"/>
</svg>
