<svg width="35" height="27" viewBox="0 0 35 27" fill="none" xmlns="http://www.w3.org/2000/svg">
<path d="M29.6136 2.21674C27.3969 1.18341 24.9969 0.43341 22.4969 7.66636e-05C22.475 -0.000624342 22.4532 0.00348913 22.4331 0.0121279C22.4129 0.0207667 22.3949 0.0337211 22.3803 0.050077C22.0803 0.600077 21.7303 1.31674 21.4969 1.86674C18.8453 1.46674 16.1486 1.46674 13.4969 1.86674C13.2636 1.30008 12.9136 0.600077 12.5969 0.050077C12.5803 0.0167437 12.5303 7.66636e-05 12.4803 7.66636e-05C9.98027 0.43341 7.59694 1.18341 5.36361 2.21674C5.34694 2.21674 5.33027 2.23341 5.31361 2.25008C0.780274 9.03341 -0.469727 15.6334 0.14694 22.1667C0.14694 22.2001 0.163607 22.2334 0.19694 22.2501C3.19694 24.4501 6.08027 25.7834 8.93027 26.6667C8.98027 26.6834 9.03027 26.6667 9.04694 26.6334C9.71361 25.7167 10.3136 24.7501 10.8303 23.7334C10.8636 23.6667 10.8303 23.6001 10.7636 23.5834C9.81361 23.2167 8.91361 22.7834 8.03027 22.2834C7.96361 22.2501 7.96361 22.1501 8.01361 22.1001C8.19694 21.9667 8.38027 21.8167 8.56361 21.6834C8.59694 21.6501 8.64694 21.6501 8.68027 21.6667C14.4136 24.2834 20.5969 24.2834 26.2636 21.6667C26.2969 21.6501 26.3469 21.6501 26.3803 21.6834C26.5636 21.8334 26.7469 21.9667 26.9303 22.1167C26.9969 22.1667 26.9969 22.2667 26.9136 22.3001C26.0469 22.8167 25.1303 23.2334 24.1803 23.6001C24.1136 23.6167 24.0969 23.7001 24.1136 23.7501C24.6469 24.7667 25.2469 25.7334 25.8969 26.6501C25.9469 26.6667 25.9969 26.6834 26.0469 26.6667C28.9136 25.7834 31.7969 24.4501 34.7969 22.2501C34.8303 22.2334 34.8469 22.2001 34.8469 22.1667C35.5803 14.6167 33.6303 8.06674 29.6803 2.25008C29.6636 2.23341 29.6469 2.21674 29.6136 2.21674ZM11.6969 18.1834C9.98027 18.1834 8.54694 16.6001 8.54694 14.6501C8.54694 12.7001 9.94694 11.1167 11.6969 11.1167C13.4636 11.1167 14.8636 12.7167 14.8469 14.6501C14.8469 16.6001 13.4469 18.1834 11.6969 18.1834ZM23.3136 18.1834C21.5969 18.1834 20.1636 16.6001 20.1636 14.6501C20.1636 12.7001 21.5636 11.1167 23.3136 11.1167C25.0803 11.1167 26.4803 12.7167 26.4636 14.6501C26.4636 16.6001 25.0803 18.1834 23.3136 18.1834Z" fill="#DA9B1D"/>
</svg>
