<svg width="23" height="21" viewBox="0 0 23 21" fill="none" xmlns="http://www.w3.org/2000/svg">
<path d="M4.2276 8.93945V20.9395H0.2276V8.93945H4.2276ZM8.2276 20.9395C7.69717 20.9395 7.18846 20.7287 6.81339 20.3537C6.43831 19.9786 6.2276 19.4699 6.2276 18.9395V8.93945C6.2276 8.38945 6.4476 7.88945 6.8176 7.52945L13.3976 0.939453L14.4576 1.99945C14.7276 2.26945 14.8976 2.63945 14.8976 3.04945L14.8676 3.36945L13.9176 7.93945H20.2276C20.758 7.93945 21.2667 8.15017 21.6418 8.52524C22.0169 8.90031 22.2276 9.40902 22.2276 9.93945V11.9395C22.2276 12.1995 22.1776 12.4395 22.0876 12.6695L19.0676 19.7195C18.7676 20.4395 18.0576 20.9395 17.2276 20.9395H8.2276ZM8.2276 18.9395H17.2576L20.2276 11.9395V9.93945H11.4376L12.5676 4.61945L8.2276 8.96945V18.9395Z" fill="#DA9B1D"/>
</svg>
