<svg width="16" height="16" viewBox="0 0 16 16" fill="none" xmlns="http://www.w3.org/2000/svg">
<path d="M13.8091 14.9747L9.22726 10.3864C8.81817 10.7141 8.34771 10.9736 7.8159 11.1648C7.28408 11.356 6.71817 11.4515 6.11817 11.4515C4.63181 11.4515 3.37399 10.9359 2.34471 9.90462C1.31544 8.87333 0.800533 7.61373 0.799988 6.1258C0.799988 4.63732 1.3149 3.37771 2.34471 2.34697C3.37453 1.31624 4.63235 0.800595 6.11817 0.800049C7.60453 0.800049 8.86235 1.31569 9.89162 2.34697C10.9209 3.37826 11.4358 4.63786 11.4364 6.1258C11.4364 6.72665 11.3409 7.29336 11.15 7.82594C10.9591 8.35851 10.7 8.82964 10.3727 9.23931L14.975 13.8481C15.125 13.9983 15.2 14.1827 15.2 14.4012C15.2 14.6197 15.1182 14.8109 14.9545 14.9747C14.8045 15.1249 14.6136 15.2 14.3818 15.2C14.15 15.2 13.9591 15.1249 13.8091 14.9747ZM6.11817 9.81285C7.1409 9.81285 8.01035 9.45425 8.72653 8.73705C9.44271 8.01985 9.80053 7.14943 9.79999 6.1258C9.79999 5.10161 9.4419 4.23092 8.72572 3.51372C8.00953 2.79652 7.14035 2.43819 6.11817 2.43874C5.09544 2.43874 4.22599 2.79734 3.50981 3.51454C2.79362 4.23174 2.43581 5.10216 2.43635 6.1258C2.43635 7.14998 2.79444 8.02067 3.51062 8.73787C4.22681 9.45507 5.09599 9.8134 6.11817 9.81285Z" fill="#DA9B1D"/>
</svg>
