<svg width="30" height="34" viewBox="0 0 30 34" fill="none" xmlns="http://www.w3.org/2000/svg">
<path d="M27.5 0H2.5C1.83696 0 1.20107 0.263392 0.732233 0.732233C0.263392 1.20107 0 1.83696 0 2.5V25C0 25.663 0.263392 26.2989 0.732233 26.7678C1.20107 27.2366 1.83696 27.5 2.5 27.5H5V32.5C4.99991 32.7376 5.06754 32.9703 5.19496 33.1708C5.32238 33.3714 5.50432 33.5314 5.71946 33.6323C5.93459 33.7331 6.17401 33.7706 6.40966 33.7402C6.64532 33.7099 6.86744 33.613 7.05 33.4609L14.2031 27.5H20.7969C21.3821 27.5002 21.9489 27.295 22.3984 26.9203L29.1 21.3344C29.3822 21.1003 29.6092 20.8068 29.7648 20.4749C29.9203 20.1429 30.0007 19.7807 30 19.4141V2.5C30 1.83696 29.7366 1.20107 29.2678 0.732233C28.7989 0.263392 28.163 0 27.5 0ZM15 16.25C15 16.5815 14.8683 16.8995 14.6339 17.1339C14.3995 17.3683 14.0815 17.5 13.75 17.5C13.4185 17.5 13.1005 17.3683 12.8661 17.1339C12.6317 16.8995 12.5 16.5815 12.5 16.25V8.75C12.5 8.41848 12.6317 8.10054 12.8661 7.86612C13.1005 7.6317 13.4185 7.5 13.75 7.5C14.0815 7.5 14.3995 7.6317 14.6339 7.86612C14.8683 8.10054 15 8.41848 15 8.75V16.25ZM22.5 16.25C22.5 16.5815 22.3683 16.8995 22.1339 17.1339C21.8995 17.3683 21.5815 17.5 21.25 17.5C20.9185 17.5 20.6005 17.3683 20.3661 17.1339C20.1317 16.8995 20 16.5815 20 16.25V8.75C20 8.41848 20.1317 8.10054 20.3661 7.86612C20.6005 7.6317 20.9185 7.5 21.25 7.5C21.5815 7.5 21.8995 7.6317 22.1339 7.86612C22.3683 8.10054 22.5 8.41848 22.5 8.75V16.25Z" fill="#DA9B1D"/>
</svg>
