<svg width="35" height="28" viewBox="0 0 35 28" fill="none" xmlns="http://www.w3.org/2000/svg">
<path d="M34.1141 4.61251C33.9668 4.03649 33.6848 3.50373 33.2911 3.05818C32.8974 2.61264 32.4035 2.26707 31.85 2.05001C26.4937 -0.0187442 17.9688 5.94365e-06 17.5 5.94365e-06C17.0312 5.94365e-06 8.50625 -0.0187442 3.15 2.05001C2.5965 2.26707 2.10255 2.61264 1.7089 3.05818C1.31524 3.50373 1.03316 4.03649 0.885938 4.61251C0.48125 6.17188 0 9.02188 0 13.75C0 18.4781 0.48125 21.3281 0.885938 22.8875C1.03294 23.4638 1.31492 23.9969 1.70859 24.4427C2.10226 24.8885 2.59633 25.2343 3.15 25.4516C8.28125 27.4313 16.3125 27.5 17.3969 27.5H17.6031C18.6875 27.5 26.7234 27.4313 31.85 25.4516C32.4037 25.2343 32.8977 24.8885 33.2914 24.4427C33.6851 23.9969 33.9671 23.4638 34.1141 22.8875C34.5187 21.325 35 18.4781 35 13.75C35 9.02188 34.5187 6.17188 34.1141 4.61251ZM22.8469 14.2703L15.3469 19.2703C15.2527 19.3331 15.1433 19.3692 15.0302 19.3747C14.9172 19.3802 14.8048 19.3548 14.705 19.3014C14.6052 19.248 14.5218 19.1685 14.4637 19.0714C14.4056 18.9743 14.3749 18.8632 14.375 18.75V8.75001C14.3749 8.63683 14.4056 8.52575 14.4637 8.42864C14.5218 8.33152 14.6052 8.25202 14.705 8.1986C14.8048 8.14518 14.9172 8.11986 15.0302 8.12533C15.1433 8.13081 15.2527 8.16688 15.3469 8.22969L22.8469 13.2297C22.9326 13.2867 23.0029 13.3641 23.0515 13.4549C23.1002 13.5456 23.1256 13.647 23.1256 13.75C23.1256 13.853 23.1002 13.9544 23.0515 14.0451C23.0029 14.1359 22.9326 14.2133 22.8469 14.2703Z" fill="#DA9B1D"/>
</svg>
