<svg width="80" height="81" viewBox="0 0 80 81" fill="none" xmlns="http://www.w3.org/2000/svg">
<path d="M32.4246 55.9727L55.4751 40.9727L32.4246 25.9727V55.9727ZM40.6569 74.3061C36.1017 74.3061 31.8209 73.4305 27.8145 71.6794C23.8081 69.9283 20.3231 67.5538 17.3594 64.5561C14.3958 61.5561 12.0501 58.0283 10.3224 53.9727C8.59474 49.9172 7.7298 45.5838 7.7276 40.9727C7.7276 36.3616 8.59254 32.0283 10.3224 27.9727C12.0523 23.9172 14.398 20.3894 17.3594 17.3894C20.3231 14.3894 23.8081 12.015 27.8145 10.2661C31.8209 8.51718 36.1017 7.64163 40.6569 7.6394C45.2121 7.6394 49.4929 8.51496 53.4993 10.2661C57.5057 12.0172 60.9907 14.3916 63.9544 17.3894C66.918 20.3894 69.2648 23.9172 70.9947 27.9727C72.7245 32.0283 73.5884 36.3616 73.5862 40.9727C73.5862 45.5838 72.7212 49.9172 70.9914 53.9727C69.2615 58.0283 66.9158 61.5561 63.9544 64.5561C60.9907 67.5561 57.5057 69.9316 53.4993 71.6827C49.4929 73.4338 45.2121 74.3083 40.6569 74.3061ZM40.6569 67.6394C48.0111 67.6394 54.2402 65.0561 59.3443 59.8894C64.4483 54.7227 67.0003 48.4172 67.0003 40.9727C67.0003 33.5283 64.4483 27.2227 59.3443 22.0561C54.2402 16.8894 48.0111 14.3061 40.6569 14.3061C33.3027 14.3061 27.0736 16.8894 21.9695 22.0561C16.8655 27.2227 14.3135 33.5283 14.3135 40.9727C14.3135 48.4172 16.8655 54.7227 21.9695 59.8894C27.0736 65.0561 33.3027 67.6394 40.6569 67.6394Z" fill="#DA9B1D"/>
</svg>
